<?xml version="1.0" standalone="no"?>
<!DOCTYPE svg PUBLIC "-//W3C//DTD SVG 20010904//EN"
 "http://www.w3.org/TR/2001/REC-SVG-20010904/DTD/svg10.dtd">
<svg version="1.0" xmlns="http://www.w3.org/2000/svg"
 width="632.000000pt" height="1280.000000pt" viewBox="0 0 632.000000 1280.000000"
 preserveAspectRatio="xMidYMid meet">
<metadata>
Created by potrace 1.15, written by Peter Selinger 2001-2017
</metadata>
<g transform="translate(0.000000,1280.000000) scale(0.100000,-0.100000)"
fill="#FFD93D" stroke="none">
<path d="M2680 12114 c-19 -2 -109 -11 -199 -20 -103 -10 -184 -23 -215 -35
-28 -10 -103 -58 -166 -105 -178 -133 -339 -216 -662 -345 -157 -62 -265 -122
-351 -193 -43 -36 -118 -94 -166 -130 -89 -65 -144 -123 -175 -183 -18 -36
-14 -36 44 -6 62 32 72 5 21 -53 -58 -66 -83 -124 -87 -202 l-4 -67 18 50 c33
88 87 175 108 175 12 0 -6 -139 -27 -203 -25 -77 -64 -137 -87 -137 -25 0 -57
36 -84 95 -17 39 -22 68 -21 130 0 74 -1 78 -13 50 -76 -175 -6 -355 137 -355
l31 0 -7 -107 c-8 -133 -17 -167 -55 -225 -30 -45 -31 -46 -95 -50 -72 -4
-105 -23 -142 -78 -31 -45 -31 -71 -1 -43 36 33 120 83 139 83 16 0 14 -14
-17 -132 -36 -139 -72 -228 -124 -303 -62 -90 -64 -98 -71 -380 -4 -143 -11
-355 -15 -472 -6 -186 -5 -217 10 -256 35 -92 111 -132 363 -193 161 -38 215
-63 261 -122 72 -91 105 -179 166 -447 14 -60 35 -144 46 -185 11 -41 18 -85
15 -97 -7 -32 11 -29 46 6 34 35 35 39 14 271 -9 97 -13 199 -9 247 l7 81 81
38 c195 89 506 169 754 195 69 7 196 9 330 6 243 -6 332 -20 489 -79 130 -49
196 -91 294 -188 135 -133 189 -266 189 -468 0 -354 -171 -666 -701 -1273
-198 -226 -299 -355 -423 -543 -250 -376 -389 -713 -453 -1106 -14 -86 -16
-164 -15 -429 1 -177 5 -327 8 -332 3 -5 423 -9 1000 -9 l994 0 0 139 c0 396
59 680 200 960 120 240 258 422 591 782 289 312 417 462 563 656 179 239 321
483 405 695 17 43 35 86 40 95 6 10 13 34 16 54 7 43 42 82 104 114 42 21 43
22 19 28 -16 4 -30 19 -38 37 -11 27 -10 33 6 51 21 23 101 65 177 94 26 10
46 19 44 21 -2 2 -46 -2 -98 -10 -52 -8 -95 -13 -97 -12 -1 2 22 19 50 40 62
43 172 141 120 106 -49 -33 -99 -42 -139 -25 -18 8 -33 16 -33 19 0 3 14 13
31 21 135 70 212 255 193 465 -5 52 -9 262 -10 465 0 346 -2 376 -23 467 -12
53 -33 130 -47 170 -31 93 -76 269 -70 275 8 9 109 -43 159 -81 l49 -37 -19
31 c-10 18 -57 84 -105 148 -48 65 -88 127 -88 139 0 55 118 139 211 150 42 5
48 8 33 16 -22 13 -154 15 -206 4 l-36 -8 36 83 c32 71 37 93 37 158 0 52 -6
86 -18 110 l-18 35 36 -40 c19 -22 52 -74 73 -115 45 -91 41 -84 47 -78 3 3 1
34 -4 69 -13 78 -57 172 -153 325 -41 66 -101 170 -132 232 -54 104 -69 124
-195 254 -75 77 -182 179 -238 225 -57 47 -136 124 -177 171 -110 131 -200
211 -344 306 -145 97 -265 151 -423 190 -59 15 -280 48 -509 77 l-405 52 -380
2 c-209 2 -396 1 -415 -1z"/>
<path d="M5663 7260 c0 -30 2 -43 4 -27 2 15 2 39 0 55 -2 15 -4 2 -4 -28z"/>
<path d="M2997 7153 c-4 -3 -7 -11 -7 -17 0 -6 5 -5 12 2 6 6 9 14 7 17 -3 3
-9 2 -12 -2z"/>
<path d="M2710 3819 c-882 -102 -1532 -850 -1497 -1724 28 -697 480 -1300
1138 -1519 204 -68 287 -81 539 -81 252 0 335 13 539 81 532 177 945 618 1087
1163 171 655 -77 1354 -626 1760 -332 246 -775 366 -1180 320z"/>
</g>
</svg>
